<svg width="102" height="47" viewBox="0 0 102 47" fill="none" xmlns="http://www.w3.org/2000/svg">
<rect width="102" height="47" fill="#1E1E1E"/>
<g id="Green Way - Desktop" clip-path="url(#clip0_0_1)">
<rect width="1440" height="1024" transform="translate(-669 -473)" fill="white"/>
<g id="Fundo" filter="url(#filter0_d_0_1)">
<rect x="-669" y="-373" width="1440" height="464" fill="#274F29"/>
</g>
<g id="Conversor">
<g id="Rectangle 7" filter="url(#filter1_d_0_1)">
<rect x="-364" y="-162" width="830" height="402" rx="15" fill="white"/>
</g>
<g id="Setas">
<path id="Arrow 1" d="M0.292892 7.45767C-0.0976334 7.8482 -0.0976334 8.48136 0.292892 8.87189L6.65685 15.2358C7.04738 15.6264 7.68054 15.6264 8.07107 15.2358C8.46159 14.8453 8.46159 14.2122 8.07107 13.8216L2.41422 8.16478L8.07107 2.50793C8.46159 2.1174 8.46159 1.48424 8.07107 1.09371C7.68054 0.703187 7.04738 0.703187 6.65685 1.09371L0.292892 7.45767ZM101 7.16478L1 7.16478V9.16478L101 9.16478V7.16478Z" fill="black"/>
<path id="Arrow 2" d="M101.707 39.7071C102.098 39.3166 102.098 38.6834 101.707 38.2929L95.3431 31.9289C94.9526 31.5384 94.3195 31.5384 93.9289 31.9289C93.5384 32.3195 93.5384 32.9526 93.9289 33.3431L99.5858 39L93.9289 44.6569C93.5384 45.0474 93.5384 45.6805 93.9289 46.0711C94.3195 46.4616 94.9526 46.4616 95.3431 46.0711L101.707 39.7071ZM1 40H101V38H1V40Z" fill="black"/>
</g>
</g>
</g>
<defs>
<filter id="filter0_d_0_1" x="-677" y="-377" width="1456" height="480" filterUnits="userSpaceOnUse" color-interpolation-filters="sRGB">
<feFlood flood-opacity="0" result="BackgroundImageFix"/>
<feColorMatrix in="SourceAlpha" type="matrix" values="0 0 0 0 0 0 0 0 0 0 0 0 0 0 0 0 0 0 127 0" result="hardAlpha"/>
<feOffset dy="4"/>
<feGaussianBlur stdDeviation="4"/>
<feComposite in2="hardAlpha" operator="out"/>
<feColorMatrix type="matrix" values="0 0 0 0 0 0 0 0 0 0 0 0 0 0 0 0 0 0 0.25 0"/>
<feBlend mode="normal" in2="BackgroundImageFix" result="effect1_dropShadow_0_1"/>
<feBlend mode="normal" in="SourceGraphic" in2="effect1_dropShadow_0_1" result="shape"/>
</filter>
<filter id="filter1_d_0_1" x="-380" y="-178" width="862" height="434" filterUnits="userSpaceOnUse" color-interpolation-filters="sRGB">
<feFlood flood-opacity="0" result="BackgroundImageFix"/>
<feColorMatrix in="SourceAlpha" type="matrix" values="0 0 0 0 0 0 0 0 0 0 0 0 0 0 0 0 0 0 127 0" result="hardAlpha"/>
<feOffset/>
<feGaussianBlur stdDeviation="8"/>
<feComposite in2="hardAlpha" operator="out"/>
<feColorMatrix type="matrix" values="0 0 0 0 0 0 0 0 0 0 0 0 0 0 0 0 0 0 0.5 0"/>
<feBlend mode="normal" in2="BackgroundImageFix" result="effect1_dropShadow_0_1"/>
<feBlend mode="normal" in="SourceGraphic" in2="effect1_dropShadow_0_1" result="shape"/>
</filter>
<clipPath id="clip0_0_1">
<rect width="1440" height="1024" fill="white" transform="translate(-669 -473)"/>
</clipPath>
</defs>
</svg>
