<svg width="16" height="20" viewBox="0 0 16 20" fill="none" xmlns="http://www.w3.org/2000/svg">
<g id="Setas">
<path id="Arrow 2" d="M12.3536 0.646446C12.1583 0.451185 11.8417 0.451185 11.6464 0.646446L8.46447 3.82843C8.2692 4.02369 8.2692 4.34027 8.46447 4.53553C8.65973 4.7308 8.97631 4.7308 9.17157 4.53553L12 1.70711L14.8284 4.53553C15.0237 4.7308 15.3403 4.7308 15.5355 4.53553C15.7308 4.34027 15.7308 4.02369 15.5355 3.82843L12.3536 0.646446ZM12.5 19V1H11.5V19H12.5Z" fill="black"/>
<path id="Arrow 1" d="M3.64645 19.3536C3.84171 19.5488 4.15829 19.5488 4.35355 19.3536L7.53553 16.1716C7.7308 15.9763 7.7308 15.6597 7.53553 15.4645C7.34027 15.2692 7.02369 15.2692 6.82843 15.4645L4 18.2929L1.17157 15.4645C0.976311 15.2692 0.659728 15.2692 0.464466 15.4645C0.269204 15.6597 0.269204 15.9763 0.464466 16.1716L3.64645 19.3536ZM3.5 1L3.5 19H4.5L4.5 1H3.5Z" fill="black"/>
</g>
</svg>
